# xmcd
# Track frame offsets:
# 150
# 14097
# 28398
# 43011
# 57199
# 72258
# 88995
# 100256
# 112887
# 124163
#
# Disc length: 1801 seconds
# Revision: 0
# Processed by: cddbd v1.4PL0 Copyright (c) Steve Scherf et al.
# Submitted via: VisiTrax 2.9.5.180 - For more info visit www.synapsa.com
#
DISCID=8d07070a
DTITLE=Tennessee Ernie Ford - Back where I belong
DYEAR=1982
DGENRE=
TTITLE0=This old heart
TTITLE1=A legend in his mind
TTITLE2=Tell me you remember Betty Jean
TTITLE3=Get a little dirt on your hands
TTITLE4=Born to lose
TTITLE5=Raised by the railroad line
TTITLE6=Piece of the rock
TTITLE7=Homegrown man (made in America)
TTITLE8=(it's over) Nobody wins
TTITLE9=What ever happened to old fashioned love
EXTD=
EXTT0=
EXTT1=
EXTT2=
EXTT3=
EXTT4=
EXTT5=
EXTT6=
EXTT7=
EXTT8=
EXTT9=
PLAYORDER=
